<svg xmlns="http://www.w3.org/2000/svg" version="1.1" viewBox="0 0 800 369.9" width="800">
  <defs>
    <style>
      .cls-1 {
        fill: none;
        stroke: #616161;
        stroke-linecap: round;
        stroke-linejoin: round;
        stroke-opacity: .8;
        stroke-width: 2.5px;
      }

      .cls-2 {
        fill: #616161;
      }

      .cls-3 {
        fill: #69f;
      }
    </style>
  </defs>
 <g>
    <path class="cls-2" d="M444.7,167.4c-.4-.5-1-.8-2-.9-1,0-1.9.5-2.7,1.5l-.5.8c-.8,1.4-1.2,3-1.3,4.6,0,1.3.5,2,1.3,2.4h.8c1.8.1,3.5-.7,4.6-2.2l.3-.2c.2,0,.3.1.3.3s-.3.5-.8,1c-1.2,1.1-2.8,1.7-4.4,1.7-1.5,0-2.5-.5-3.2-1.7-.4-.6-.5-1.3-.5-2.1,0-1.6.6-3,1.8-4.4,1-1.2,2.4-2,4-2.2h.3c1.2,0,2,.4,2.5,1.1.2.3.2.6.2.9,0,.7-.2,1.1-.8,1.4h-.4c-.5,0-.8-.1-.9-.5v-.2c0-.4.1-.7.4-1,.2-.1.6-.3,1-.3h0ZM452.8,176.8l-.5,2.8h-6l.2-.5,3.2-3.5c1-1.3,1.6-2.5,1.6-3.6s-.3-1.7-.8-2.1c-.4-.4-.8-.5-1.3-.5-.8,0-1.4.3-1.9,1l-.3.6h.2c.4,0,.7.2.8.6v.3c0,.4-.1.7-.6.8h-.2c-.4,0-.6-.2-.8-.5v-.4c0-.8.3-1.5,1-2.1.5-.5,1.3-.8,2-.8,1.2,0,2,.4,2.7,1.2.4.4.6,1,.7,1.6v.3c0,.8-.3,1.5-.9,2.2l-1.5,1.5-1,.9h0c0,.1-1.8,1.8-1.8,1.8h2.9c1,0,1.4,0,1.5-.2.1-.1.3-.6.4-1.4h.4,0Z"/>
    <path class="cls-1" d="M408.5,188.2h77.6"/>
    <path class="cls-2" d="M391.7,146.4c-.4-.5-1-.8-2-.9-1,0-1.9.5-2.7,1.5l-.5.8c-.8,1.4-1.2,3-1.3,4.6,0,1.3.5,2,1.3,2.4h.8c1.8.1,3.5-.7,4.6-2.2l.3-.2c.2,0,.3.1.3.3s-.3.5-.8,1c-1.2,1.1-2.8,1.7-4.4,1.7-1.5,0-2.5-.5-3.2-1.7-.4-.6-.5-1.3-.5-2.1,0-1.6.6-3,1.8-4.4,1-1.2,2.4-2,4-2.2h.3c1.2,0,2,.4,2.5,1.1.2.3.2.6.2.9,0,.7-.2,1.1-.8,1.4h-.4c-.5,0-.8-.1-.9-.5v-.2c0-.4.1-.7.4-1,.2-.1.6-.3,1-.3h0ZM397.3,148.3v9c0,.4,0,.6.2.7h1.3c0,.1.5.1.5.1v.5c-1.7-.1-3.5-.1-5.2,0v-.5h.5c.8,0,1.3,0,1.4-.3v-.4c.1,0,.1-8.4.1-8.4-.6.3-1.3.4-2.1.4v-.5c1.3,0,2.3-.3,3-1h.3v.4h0Z"/>
    <path class="cls-1" d="M408.5,188.2v-77.6"/>
    <path class="cls-2" d="M371.7,198.4c-.4-.5-1-.8-2-.9-1,0-1.9.5-2.7,1.5l-.5.8c-.8,1.4-1.2,3-1.3,4.6,0,1.3.5,2,1.3,2.4h.8c1.8.1,3.5-.7,4.6-2.2l.3-.2c.2,0,.3.1.3.3s-.3.5-.8,1c-1.2,1.1-2.8,1.7-4.4,1.7-1.5,0-2.5-.5-3.2-1.7-.4-.6-.5-1.3-.5-2.1,0-1.6.6-3,1.8-4.4,1-1.2,2.4-2,4-2.2h.3c1.2,0,2,.4,2.5,1.1.2.3.2.6.2.9,0,.7-.2,1.1-.8,1.4h-.4c-.5,0-.8-.1-.9-.5v-.2c0-.4.1-.7.4-1,.2-.1.6-.3,1-.3h0ZM373,208v-.5l5-7.6c0-.1.1-.2.3-.2l.2.2v7.6h1.6v.5h-1.6v1.4l.2.6h1c0,.1.4.1.4.1v.5c-1.5,0-2.9,0-4.4,0v-.5h.4c.6,0,1,0,1.1-.2v-.5c.1,0,.1-1.4.1-1.4h-4.3M377.4,207.5v-6l-4,6h4Z"/>
    <path class="cls-1" d="M408.5,188.2h-77.7"/>
    <path class="cls-2" d="M423.7,220.4c-.4-.5-1-.8-2-.9-1,0-1.9.5-2.7,1.5l-.5.8c-.8,1.4-1.2,3-1.3,4.6,0,1.3.5,2,1.3,2.4h.8c1.8.1,3.5-.7,4.6-2.2l.3-.2c.2,0,.3.1.3.3s-.3.5-.8,1c-1.2,1.1-2.8,1.7-4.4,1.7-1.5,0-2.5-.5-3.2-1.7-.4-.6-.5-1.3-.5-2.1,0-1.6.6-3,1.8-4.4,1-1.2,2.4-2,4-2.2h.3c1.2,0,2,.4,2.5,1.1.2.3.2.6.2.9,0,.7-.2,1.1-.8,1.4h-.4c-.5,0-.8-.1-.9-.5v-.2c0-.4.1-.7.4-1,.2-.1.6-.3,1-.3h0ZM429.2,227c1.1.2,1.9.7,2.4,1.5l.3,1.4c0,.9-.3,1.7-1.1,2.3-.7.5-1.4.8-2.3.8s-2-.3-2.6-1c-.4-.4-.7-1-.7-1.5s.3-.8.7-1h.3c.4,0,.6.2.8.6v.3c0,.5-.1.8-.5.9h-.5c.4.7,1,1,2,1.2h.5c.6,0,1.1-.3,1.5-1,.2-.4.3-1,.3-1.6,0-1.4-.5-2.3-1.3-2.6-.2,0-.4,0-.6,0h-.7c-.3,0-.4-.1-.4-.3h.2c0-.1.6-.2.6-.2.6,0,1-.2,1.3-.6l.2-.2c.3-.5.4-1.2.4-1.9,0-1-.4-1.6-1.1-1.7h-.4c-.8,0-1.4.1-1.9.5,0,.2-.2.3-.3.4.7,0,1,.3,1,.8s-.1.6-.5.8c0,0-.2,0-.3,0-.4,0-.7-.2-.8-.5v-.3c0-.7.3-1.3,1-1.7.6-.3,1.2-.5,1.8-.5,1,0,1.8.3,2.4.9s.6.8.6,1.3c0,1-.4,1.7-1.1,2.3l-1.1.6h0Z"/>
    <path class="cls-1" d="M408.5,188.2v77.8"/>
    <path class="cls-2" d="M373.2,97c0,.6-.3,1-.8,1.2-.2,0-.3.1-.5,0-.4,0-.7-.2-.8-.6v-.2c0-.5.2-.8.6-1l.6-.3c.4,0,.7.3.8.7v.2M371.4,105.7l-1,2.4-.6,2.3c0,.5.2.8.6.8,1,0,1.7-.9,2.2-2.6v-.3c.1-.2.3-.3.3-.3h.2c.1,0,.2,0,.2.2s-.1.7-.5,1.4c-.6,1.4-1.5,2.1-2.5,2.1s-1.4-.3-1.7-1l-.2-.9.6-1.8c.6-1.8,1.2-3.7,1.8-5.5,0-.5-.2-.7-.6-.7-.8,0-1.5.7-2,2l-.3.8-.4.4c-.1,0-.2,0-.2-.2,0-.3.1-.8.5-1.4.6-1.4,1.5-2.1,2.5-2.1s1.4.3,1.7,1l.2.8-.3,1.3-.5,1.3h0ZM379.2,104.6v9c0,.4.1.6.3.6.1,0,.6.2,1.3.2h.5v.5c-1.7-.1-3.5-.1-5.2,0v-.5h.5c.8,0,1.3,0,1.4-.3v-8.8c-.6.3-1.3.4-2,.4v-.5c1.3,0,2.2-.3,3-1h.3v.4h-.1Z"/>
    <path class="cls-1" d="M408.5,110.6l-38.9-38.9"/>
    <path class="cls-2" d="M444.2,98c0,.6-.3,1-.8,1.2-.2,0-.3.1-.5,0-.4,0-.7-.2-.8-.6v-.2c0-.5.2-.8.6-1l.6-.3c.5,0,.7.3.8.7v.2M442.4,106.7l-1,2.4-.6,2.3c0,.5.2.8.6.8,1,0,1.7-.9,2.2-2.6v-.3c.1-.2.3-.3.3-.3h.2c.1,0,.2,0,.2.2s-.1.7-.5,1.4c-.6,1.4-1.5,2.1-2.5,2.1s-1.4-.3-1.7-1l-.2-.9.6-1.8c.6-1.8,1.2-3.7,1.8-5.5,0-.5-.2-.7-.6-.7-.8,0-1.5.7-2,2l-.3.8-.4.4c-.1,0-.2,0-.2-.2,0-.3.1-.8.5-1.4.6-1.4,1.5-2.1,2.5-2.1s1.4.3,1.7,1l.2.8-.3,1.3-.5,1.3h0ZM450.2,110.2c1,.2,1.9.8,2.3,1.6.3.4.4.9.4,1.4,0,.9-.4,1.6-1.1,2.3-1.5,1.1-3.5,1.1-4.9-.2-.5-.5-.7-1-.7-1.6s.2-.8.7-.9h.2c.4,0,.7.2.9.5v.4c0,.4-.2.7-.6.8-.1,0-.3,0-.4,0,.4.8,1,1.1,2,1.3h.4c.7,0,1.2-.3,1.5-1,.2-.4.3-1,.3-1.6,0-1.5-.4-2.3-1.2-2.6-.2,0-.5-.1-.7,0h-.7c-.2,0-.3,0-.4-.2,0,0,.1-.2.3-.2h.6c.6,0,1-.3,1.3-.7v-.2c.4-.5.6-1.1.6-1.8,0-1-.4-1.6-1.2-1.8h-.4c-.7,0-1.3.2-1.8.6l-.3.4c.7,0,1,.2,1,.8s-.2.6-.5.7c0,0-.2,0-.3,0-.4,0-.7,0-.8-.5v-.2c0-.8.3-1.3,1-1.8.5-.3,1.1-.4,1.8-.4,1,0,1.8.2,2.4.8.4.5.6.9.6,1.4,0,.9-.4,1.6-1.2,2.2-.3.3-.7.5-1,.6h0Z"/>
    <path class="cls-1" d="M408.5,110.6l38.7-38.9"/>
    <path class="cls-2" d="M347.4,48.6c0,.9-.3,2-.7,3.6-1,3-2.1,4.7-3.7,5.1h-.8c-1.4,0-2.3-.3-2.8-1.3-.2-.4-.3-.9-.3-1.4,0-.8.4-2.2,1-4l.3-.7c.2-.5.4-1,.4-1.6,0-.5-.2-.8-.6-.8-.8,0-1.5.7-2,2l-.3.9-.4.4c-.1,0-.2,0-.2-.3s.1-.7.5-1.4c.6-1.4,1.5-2.1,2.5-2.1s1.4.3,1.7,1l.2.9-.3,1.1c-.6,1.5-1.1,3-1.3,4.6v.3c0,1.2.5,1.9,1.4,2h.3c1.2,0,2.3-1,3.2-3.1.5-1.3.8-2.3.9-3.1,0-.7-.3-1.5-.8-2-.3-.2-.4-.4-.4-.6,0-.4.2-.7.6-1h.5c.5,0,.8.2,1,.7v.8h.1ZM355,57.8l-.5,2.8h-6l.2-.5,3.1-3.5c1.2-1.3,1.7-2.5,1.7-3.6,0-.8-.2-1.6-.8-2.2-.4-.3-.8-.4-1.3-.4-.8,0-1.4.3-1.9,1l-.3.6h.2c.4,0,.7.2.8.6v.3c0,.4-.1.7-.6.8h-.2c-.4,0-.6-.2-.8-.5v-.4c0-.8.3-1.5,1-2.1.5-.5,1.3-.8,2-.8,1.1,0,2,.4,2.7,1.2.4.4.6,1,.7,1.6v.3c0,.8-.4,1.6-1,2.2-.4.6-.9,1.1-1.4,1.5l-1,.9h-.1c0,0-1.7,1.8-1.7,1.8h2.9c1,0,1.4,0,1.5-.2.1,0,.3-.6.4-1.4h.4Z"/>
    <path class="cls-1" d="M369.6,71.7v-38.7"/>
    <path class="cls-2" d="M471.4,49.6c0,.9-.3,2-.7,3.6-1,3-2.1,4.7-3.7,5.1h-.8c-1.4,0-2.3-.3-2.8-1.3-.2-.4-.3-.9-.3-1.4,0-.8.4-2.2,1-4l.3-.7c.2-.5.4-1,.4-1.6,0-.5-.2-.8-.5-.8-.9,0-1.6.7-2.1,2l-.3.9-.3.4c-.2,0-.3,0-.3-.3s.1-.7.5-1.4c.6-1.4,1.5-2.1,2.5-2.1s1.4.3,1.7,1l.2.9-.3,1.1c-.6,1.5-1.1,3-1.3,4.6v.3c0,1.2.5,1.9,1.5,2h.2c1.2,0,2.3-1,3.2-3.1.5-1.3.8-2.3.9-3.1,0-.7-.3-1.5-.8-2-.3-.2-.4-.4-.4-.6,0-.4.2-.7.6-1h.6c.4,0,.7.2.9.7v.8h0ZM476.4,56c1.1.2,1.9.7,2.4,1.5l.3,1.4c0,.9-.4,1.7-1.1,2.3-.7.5-1.4.8-2.3.8s-2-.3-2.6-1c-.4-.4-.7-1-.7-1.5s.3-.8.7-1h.3c.4,0,.6.2.8.5v.4c0,.5-.1.7-.5.9h-.5c.4.7,1,1,2,1.2h.5c.6,0,1.1-.3,1.5-1,.2-.4.3-1,.3-1.6,0-1.4-.5-2.3-1.3-2.6-.2,0-.5,0-.7,0h-.7c-.2,0-.3,0-.4-.3l.3-.2h.6c.6,0,1-.2,1.3-.6l.2-.3c.3-.5.4-1,.4-1.8s-.4-1.6-1.1-1.7h-.4c-.8,0-1.4,0-1.9.5,0,.2-.2.3-.3.4.7,0,1,.3,1,.8s-.2.6-.5.8c0,0-.2,0-.3,0-.4,0-.7-.2-.8-.5v-.4c0-.7.3-1.3,1-1.7.6-.3,1.2-.5,1.8-.5,1,0,1.8.3,2.4.9.4.4.6.8.6,1.3,0,1-.4,1.7-1.1,2.3l-1.2.6h0Z"/>
    <path class="cls-1" d="M447.3,71.7v-38.7"/>
    <path class="cls-2" d="M491.2,141c0,.6-.3,1-.8,1.2-.2,0-.3.1-.5.1-.4,0-.7-.2-.8-.6v-.2c0-.5.2-.8.6-1,.2-.2.4-.2.6-.2.5,0,.7.2.8.6v.2M489.4,149.7l-1,2.4-.6,2.3c0,.6.2.8.6.8,1,0,1.7-.9,2.2-2.6v-.3c.1,0,.3-.4.3-.4h.2c.1,0,.2.1.2.3s-.1.7-.5,1.4c-.6,1.4-1.5,2.1-2.5,2.1s-1.4-.3-1.7-1l-.2-.9.6-1.8c.6-1.8,1.2-3.7,1.8-5.5,0-.5-.2-.7-.6-.7-.8,0-1.5.7-2,2l-.3.8-.4.4c-.1,0-.2,0-.2-.2,0-.3.1-.7.5-1.4.6-1.4,1.5-2.1,2.5-2.1s1.4.3,1.7,1l.2.9-.3,1.2-.5,1.3h0ZM497.2,148.6v9c0,.4.1.6.3.6.1.2.6.2,1.3.2h.5v.5c-1.7-.1-3.5-.1-5.2,0v-.5h.5c.8,0,1.3-.1,1.4-.3v-8.8c-.6.3-1.3.4-2,.4v-.5c1.3,0,2.2-.3,3-1h.3v.4h0Z"/>
    <path class="cls-1" d="M486.2,188.2l38.8-38.8"/>
    <path class="cls-2" d="M490.2,210c0,.6-.3,1-.8,1.2-.2,0-.3.1-.5.1-.4,0-.7-.2-.8-.6v-.2c0-.5.2-.8.6-1,.2-.2.4-.2.6-.2.5,0,.7.2.8.6v.2M488.4,218.7l-1,2.4-.6,2.3c0,.6.2.8.6.8,1,0,1.7-.9,2.2-2.6v-.3c.1,0,.3-.4.3-.4h.2c.1,0,.2.1.2.3s-.1.7-.5,1.4c-.6,1.4-1.5,2.1-2.5,2.1s-1.4-.3-1.7-1l-.2-.9.6-1.8c.6-1.8,1.2-3.7,1.8-5.5,0-.5-.2-.7-.6-.7-.8,0-1.5.7-2,2l-.3.8-.4.4c-.1,0-.2,0-.2-.2,0-.3.1-.7.5-1.4.6-1.4,1.5-2.1,2.5-2.1s1.4.3,1.7,1l.2.9-.3,1.2-.5,1.3h0ZM498.8,225.1l-.5,2.8h-6v-.5c.1,0,.2-.1.2-.1l3.1-3.5c1.1-1.2,1.7-2.4,1.7-3.5s-.3-1.7-.9-2.2c-.3-.3-.8-.4-1.3-.4s-1.3.3-1.8,1l-.3.6h.2c.4,0,.7.2.8.6v.2c0,.5-.2.7-.6.9h-.2c-.4,0-.7-.2-.8-.5v-.4c0-.9.3-1.6.9-2.2.6-.5,1.3-.7,2-.7,1.2,0,2.1.4,2.8,1.2.4.4.6,1,.6,1.6v.3c0,.8-.2,1.5-.8,2.2l-1.5,1.5-1,.8v.2c-.1,0-1.8,1.6-1.8,1.6h4.4l.3-1.5h.5Z"/>
    <path class="cls-1" d="M486.2,188.2l38.8,38.9"/>
    <path class="cls-2" d="M510.4,103.6c0,.9-.3,2-.7,3.6-1,3-2.1,4.7-3.7,5.1h-.8c-1.4,0-2.3-.3-2.8-1.3-.2-.4-.3-.9-.3-1.4,0-.8.4-2.2,1-4l.3-.7c.3-.7.4-1.3.4-1.7s-.2-.7-.5-.7c-.9,0-1.6.7-2.1,2l-.3.9-.3.4c-.2,0-.3,0-.3-.3s.1-.7.5-1.4c.6-1.4,1.5-2.1,2.5-2.1s1.4.3,1.7,1l.2.9-.3,1.1c-.6,1.5-1.1,3-1.3,4.6v.3c0,1.2.5,1.9,1.5,2h.2c1.2,0,2.3-1,3.2-3.1.5-1.3.8-2.3.9-3.1,0-.7-.3-1.5-.8-2-.3-.2-.4-.4-.4-.6,0-.4.2-.7.6-1h.6c.4,0,.7.2.9.7v.8h0ZM515.5,105.3v9c0,.4,0,.6.2.7h1.3c0,0,.5,0,.5,0v.5c-1.7-.1-3.5-.1-5.2,0v-.5h.5c.8,0,1.3,0,1.4-.3v-.5c.1,0,.1-8.3.1-8.3-.6.3-1.3.4-2.1.4v-.5c1.3,0,2.3-.3,3-1h.3v.4h0Z"/>
    <path class="cls-1" d="M525,149.4v-58.4"/>
    <path class="cls-2" d="M566.4,160.6c0,.9-.3,2-.7,3.6-1,3-2.1,4.7-3.7,5.1h-.8c-1.4.1-2.3-.3-2.8-1.3-.2-.4-.3-.9-.3-1.4,0-.8.4-2.2,1-4l.3-.7c.2-.5.4-1,.4-1.6,0-.5-.2-.8-.5-.8-.9,0-1.6.7-2.1,2l-.3.9-.3.4c-.2,0-.3-.1-.3-.3s.1-.7.5-1.4c.6-1.4,1.5-2.1,2.5-2.1s1.4.3,1.7,1l.2.9-.3,1.1c-.6,1.5-1.1,3-1.3,4.6v.3c0,1.2.5,1.9,1.5,2h.2c1.2,0,2.3-1,3.2-3.1.5-1.2.8-2.3.9-3.1,0-.7-.3-1.5-.8-2-.3-.2-.4-.4-.4-.6,0-.4.2-.7.6-1h.6c.4-.1.7.2.9.7v.8h0ZM574,169.8l-.5,2.8h-6l.2-.5,3.1-3.5c1.2-1.3,1.7-2.5,1.7-3.6s-.3-1.7-.8-2.1c-.4-.4-.8-.5-1.3-.5-.8,0-1.4.3-1.9,1l-.3.6h.2c.4,0,.7.2.8.6v.3c0,.4-.2.7-.6.8h-.2c-.4,0-.7-.2-.8-.5v-.4c0-.8.3-1.5,1-2.1.5-.5,1.3-.8,2-.8,1.1,0,2,.4,2.7,1.2.4.4.6,1,.7,1.6v.3c0,.8-.4,1.6-1,2.2-.4.6-.9,1.1-1.4,1.5l-1,.9h-.1c0,.1-1.7,1.8-1.7,1.8h2.9c1,0,1.4,0,1.5-.2l.4-1.4h.4,0Z"/>
    <path class="cls-1" d="M525,149.4h58.2"/>
    <path class="cls-2" d="M565.4,204.6c0,.9-.3,2-.7,3.6-1,3-2.1,4.7-3.7,5.1h-.8c-1.4.1-2.3-.3-2.8-1.3-.2-.4-.3-.9-.3-1.4,0-.8.4-2.2,1-4l.3-.7c.2-.5.4-1,.4-1.6,0-.5-.2-.8-.5-.8-.9,0-1.6.7-2.1,2l-.3.9-.3.4c-.2,0-.3-.1-.3-.3s.1-.7.5-1.4c.6-1.4,1.5-2.1,2.5-2.1s1.4.3,1.7,1l.2.9-.3,1.1c-.6,1.5-1.1,3-1.3,4.6v.3c0,1.2.5,1.9,1.5,2h.2c1.2,0,2.3-1,3.2-3.1.5-1.2.8-2.3.9-3.1,0-.7-.3-1.5-.8-2-.3-.2-.4-.4-.4-.6,0-.4.2-.7.6-1h.6c.4-.1.7.2.9.7v.8h0ZM573,213.8l-.5,2.8h-6l.2-.5,3.1-3.5c1.2-1.3,1.7-2.5,1.7-3.6s-.3-1.7-.8-2.1c-.4-.4-.8-.5-1.3-.5-.8,0-1.4.3-1.9,1l-.3.6h.2c.4,0,.7.2.8.6v.3c0,.4-.2.7-.6.8h-.2c-.4,0-.7-.2-.8-.5v-.4c0-.8.3-1.5,1-2.1.5-.5,1.3-.8,2-.8,1.1,0,2,.4,2.7,1.2.4.4.6,1,.7,1.6v.3c0,.8-.4,1.6-1,2.2-.4.6-.9,1.1-1.4,1.5l-1,.9h-.1c0,.1-1.7,1.8-1.7,1.8h2.9c1,0,1.4,0,1.5-.2l.4-1.4h.4,0Z"/>
    <path class="cls-1" d="M525,227h58.2"/>
    <path class="cls-2" d="M505.4,260.6c0,.9-.3,2-.7,3.6-1,3-2.1,4.7-3.7,5.1h-.8c-1.4.1-2.3-.3-2.8-1.3-.2-.4-.3-.9-.3-1.4,0-.8.4-2.2,1-4l.3-.7c.2-.5.4-1,.4-1.6,0-.5-.2-.8-.5-.8-.9,0-1.6.7-2.1,2l-.3.9-.3.4c-.2,0-.3-.1-.3-.3s.1-.7.5-1.4c.6-1.4,1.5-2.1,2.5-2.1s1.4.3,1.7,1l.2.9-.3,1.1c-.6,1.5-1.1,3-1.3,4.6v.3c0,1.2.5,1.9,1.5,2h.2c1.2,0,2.3-1,3.2-3.1.5-1.2.8-2.3.9-3.1,0-.7-.3-1.5-.8-2-.3-.2-.4-.4-.4-.6,0-.4.2-.7.6-1h.6c.4-.1.7.2.9.7v.8h0ZM510.4,267c1.1.2,1.9.7,2.4,1.6.6,1.2.3,2.7-.8,3.6-.7.5-1.4.8-2.3.8s-2-.3-2.6-1c-.4-.4-.7-1-.7-1.5s.3-.8.7-1h.3c.4,0,.6.2.8.6v.3c0,.5-.1.8-.5.9h-.5c.4.7,1,1,2,1.2h.5c.6,0,1.1-.3,1.5-1,.2-.4.3-1,.3-1.6,0-1.4-.5-2.3-1.3-2.6-.2,0-.5,0-.7,0h-.7c-.2,0-.3-.1-.4-.3h.3c0-.1.6-.2.6-.2.6,0,1-.2,1.3-.6l.2-.2c.3-.5.4-1.2.4-1.9,0-1-.4-1.6-1.1-1.7h-.4c-.8,0-1.4.1-1.9.6l-.3.3c.7,0,1,.3,1,.8s-.2.7-.5.8c0,0-.2,0-.3,0-.4,0-.7-.2-.8-.5v-.3c0-.7.3-1.3,1-1.7.6-.3,1.2-.5,1.8-.5,1,0,1.8.3,2.4.9s.6.8.6,1.3c0,1-.4,1.7-1.1,2.3l-1.2.6h0Z"/>
    <path class="cls-1" d="M525,227v58.3"/>
    <path class="cls-1" d="M330.8,188.2h-77.6"/>
    <path class="cls-2" d="M249.4,152.6c0,.9-.3,2-.7,3.6-1,3-2.1,4.7-3.7,5.1h-.8c-1.4.1-2.3-.3-2.8-1.3-.2-.4-.3-.9-.3-1.4,0-.8.4-2.2,1-4l.3-.7c.2-.5.4-1,.4-1.6,0-.5-.2-.8-.5-.8-.9,0-1.6.7-2.1,2l-.3.9-.3.4c-.2,0-.3-.1-.3-.3s0-.7.5-1.4c.6-1.4,1.5-2.1,2.5-2.1s1.4.3,1.7,1l.2.9-.3,1.1c-.6,1.5-1.1,3-1.3,4.6v.3c0,1.2.5,1.9,1.5,2h.2c1.2,0,2.3-1,3.2-3.1.5-1.2.8-2.3.9-3.1,0-.7-.3-1.5-.8-2-.3-.2-.4-.4-.4-.6,0-.4.2-.7.6-1h.6c.4-.1.7.2.9.7v.8h0ZM254.5,154.3v9c0,.4,0,.6.2.7h1.3c0,.1.5.1.5.1v.5c-1.7-.1-3.5-.1-5.2,0v-.5h.5c.8,0,1.3,0,1.4-.3v-.4c0,0,0-8.4,0-8.4-.6.3-1.3.4-2.1.4v-.5c1.3,0,2.3-.3,3-1h.3c0,.1,0,.4,0,.4Z"/>
    <path class="cls-1" d="M253.2,188.2l-39-38.8"/>
    <path class="cls-2" d="M249.4,215.6c0,.9-.3,2-.7,3.6-1,3-2.1,4.7-3.7,5.1h-.8c-1.4.1-2.3-.3-2.8-1.3-.2-.4-.3-.9-.3-1.4,0-.8.4-2.2,1-4l.3-.7c.2-.5.4-1,.4-1.6,0-.5-.2-.8-.5-.8-.9,0-1.6.7-2.1,2l-.3.9-.3.4c-.2,0-.3-.1-.3-.3s0-.7.5-1.4c.6-1.4,1.5-2.1,2.5-2.1s1.4.3,1.7,1l.2.9-.3,1.1c-.6,1.5-1.1,3-1.3,4.6v.3c0,1.2.5,1.9,1.5,2h.2c1.2,0,2.3-1,3.2-3.1.5-1.2.8-2.3.9-3.1,0-.7-.3-1.5-.8-2-.3-.2-.4-.4-.4-.6,0-.4.2-.7.6-1h.6c.4-.1.7.2.9.7v.8h0ZM254.4,222c1.1.2,1.9.7,2.4,1.5l.3,1.4c0,.9-.4,1.7-1.1,2.3-.7.5-1.4.8-2.3.8s-2-.3-2.6-1c-.4-.4-.7-1-.7-1.5s.3-.8.7-1h.3c.4,0,.6.2.8.6v.3c0,.5,0,.8-.5.9h-.5c.4.7,1,1,2,1.2h.5c.6,0,1.1-.3,1.5-1,.2-.4.3-1,.3-1.6,0-1.4-.5-2.3-1.3-2.6-.2,0-.4,0-.6,0h-.8c-.2,0-.3-.1-.3-.3h.2c0-.1.6-.2.6-.2.6,0,1-.2,1.3-.6l.2-.2c.3-.5.4-1.2.4-1.9,0-1-.4-1.6-1.1-1.7h-.4c-.8,0-1.4.1-1.9.5,0,.2-.2.3-.3.4.7,0,1,.3,1,.8s0,.6-.5.8c0,0-.2,0-.3,0-.4,0-.7-.2-.8-.5v-.3c0-.7.3-1.3,1-1.7.6-.3,1.2-.5,1.8-.5,1,0,1.8.3,2.4.9.4.4.6.8.6,1.3,0,1-.4,1.7-1.1,2.3l-1.2.6h0Z"/>
    <path class="cls-1" d="M253.2,188.2l-39,38.9"/>
    <path class="cls-2" d="M376.2,262c0,.6-.3,1-.8,1.2-.2,0-.3.1-.5.1-.4,0-.7-.2-.8-.6v-.2c0-.5.2-.8.6-1l.6-.3c.4,0,.7.3.8.7v.2M374.4,270.7l-1,2.4-.6,2.3c0,.5.2.8.6.8,1,0,1.7-.9,2.2-2.6v-.3c.1,0,.3-.4.3-.4h.2c.1,0,.2.1.2.3s-.1.7-.5,1.4c-.6,1.4-1.5,2.1-2.5,2.1s-1.4-.3-1.7-1l-.2-.9.6-1.8c.6-1.8,1.2-3.7,1.8-5.5,0-.5-.2-.7-.6-.7-.8,0-1.5.7-2,2l-.3.8-.4.4c-.1,0-.2,0-.2-.2,0-.3.1-.7.5-1.4.6-1.4,1.5-2.1,2.5-2.1s1.4.3,1.7,1l.2.9-.3,1.2-.5,1.3h0ZM382.2,269.6v9c0,.3.1.6.3.6.1.2.6.2,1.3.2h.5v.5c-1.7-.1-3.5-.1-5.2,0v-.5h.5c.8,0,1.3-.1,1.4-.3v-8.8c-.6.3-1.3.4-2,.4v-.5c1.3,0,2.2-.3,3-1h.3v.4h-.1Z"/>
    <path class="cls-1" d="M408.5,265.9l-38.9,38.8"/>
    <path class="cls-2" d="M442.2,264c0,.6-.3,1-.8,1.2-.2,0-.3.1-.5.1-.4,0-.7-.2-.8-.6v-.2c0-.5.2-.8.6-1l.6-.3c.5,0,.7.3.8.7v.2M440.4,272.7l-1,2.4-.6,2.3c0,.5.2.8.6.8,1,0,1.7-.9,2.2-2.6v-.3c.1,0,.3-.4.3-.4h.2c.1,0,.2.1.2.3s-.1.7-.5,1.4c-.6,1.4-1.5,2.1-2.5,2.1s-1.4-.3-1.7-1l-.2-.9.6-1.8c.6-1.8,1.2-3.7,1.8-5.5,0-.5-.2-.7-.6-.7-.8,0-1.5.7-2,2l-.3.8-.4.4c-.1,0-.2,0-.2-.2,0-.3.1-.7.5-1.4.6-1.4,1.5-2.1,2.5-2.1s1.4.3,1.7,1l.2.9-.3,1.2-.5,1.3h0ZM450.8,279.1l-.5,2.8h-6v-.5c.1,0,.2-.1.2-.1l3.1-3.4c1.1-1.3,1.7-2.5,1.7-3.6s-.3-1.7-.9-2.2c-.3-.3-.8-.4-1.3-.4s-1.3.3-1.8,1l-.3.6h.2c.4,0,.7.2.8.6v.2c0,.5-.2.7-.6.9h-.2c-.4,0-.7-.2-.8-.5v-.4c0-.8.3-1.5.9-2.1.5-.5,1.3-.8,2-.8,1.2,0,2.1.4,2.8,1.2.4.4.6,1,.6,1.6v.3c0,.8-.2,1.5-.8,2.2l-1.5,1.5-1,.8v.2c-.1,0-1.8,1.6-1.8,1.6h4.4l.3-1.5h.5Z"/>
    <path class="cls-1" d="M408.5,265.9l38.8,38.8"/>
    <path class="cls-2" d="M349.4,318.6c0,.9-.3,2-.7,3.6-1,3-2.1,4.7-3.7,5.1h-.8c-1.4.1-2.3-.3-2.8-1.3s-.3-.9-.3-1.4c0-.8.4-2.2,1-4l.3-.7c.2-.5.4-1,.4-1.6,0-.5-.2-.8-.6-.8-.8,0-1.5.7-2,2l-.3.9-.4.4c-.1,0-.2-.1-.2-.3s.1-.7.5-1.4c.6-1.4,1.5-2.1,2.5-2.1s1.4.3,1.7,1l.2.9-.3,1.1c-.6,1.5-1.1,3-1.3,4.6v.3c0,1.2.5,1.9,1.4,2h.3c1.2,0,2.3-1,3.2-3.1.5-1.2.8-2.3.9-3.1,0-.7-.3-1.5-.8-2-.3-.2-.4-.4-.4-.6,0-.4.2-.7.6-1h.5c.5-.1.8.2,1,.7v.8h.1ZM354.5,320.3v9c0,.4,0,.6.2.7h1.3c0,.1.5.1.5.1v.5c-1.7-.1-3.5-.1-5.2,0v-.5h.5c.8,0,1.3,0,1.4-.3v-.5c.1,0,.1-8.3.1-8.3-.5.3-1.2.4-2.1.4v-.5c1.3,0,2.3-.3,3-1h.3v.4h0Z"/>
    <path class="cls-1" d="M369.6,304.7v38.9"/>
    <path class="cls-2" d="M468.4,317.6c0,.9-.3,2-.7,3.6-1,3-2.1,4.7-3.7,5.1h-.8c-1.4.1-2.3-.3-2.8-1.3-.2-.4-.3-.9-.3-1.4,0-.8.4-2.2,1-4l.3-.7c.2-.5.4-1,.4-1.6,0-.5-.2-.8-.5-.8-.9,0-1.6.7-2.1,2l-.3.9-.3.4c-.2,0-.3-.1-.3-.3s.1-.7.5-1.4c.6-1.4,1.5-2.1,2.5-2.1s1.4.3,1.7,1l.2.9-.3,1.1c-.6,1.5-1.1,3-1.3,4.6v.3c0,1.2.5,1.9,1.5,2h.2c1.2,0,2.3-1,3.2-3.1.5-1.2.8-2.3.9-3.1,0-.7-.3-1.5-.8-2-.3-.2-.4-.4-.4-.6,0-.4.2-.7.6-1h.6c.4-.1.7.2.9.7v.8h0ZM473.4,324c1.1.2,1.9.7,2.4,1.6.6,1.2.3,2.7-.8,3.6-.7.5-1.4.8-2.3.8s-2-.3-2.6-1c-.4-.4-.7-1-.7-1.5s.3-.8.7-1h.3c.4,0,.6.2.8.6v.3c0,.5-.1.8-.5.9h-.5c.4.7,1,1,2,1.2h.5c.6,0,1.1-.3,1.5-1,.2-.4.3-1,.3-1.6,0-1.4-.5-2.3-1.3-2.6-.2,0-.5,0-.7,0h-.7c-.2,0-.3-.1-.4-.3h.3c0-.1.6-.2.6-.2.6,0,1-.2,1.3-.6l.2-.2c.3-.5.4-1.2.4-1.9,0-1-.4-1.6-1.1-1.7h-.4c-.8,0-1.4.1-1.9.6l-.3.3c.7,0,1,.3,1,.8s-.2.7-.5.8c0,0-.2,0-.3,0-.4,0-.7-.2-.8-.5v-.3c0-.7.3-1.3,1-1.7.6-.3,1.2-.5,1.8-.5,1,0,1.8.3,2.4.9s.6.8.6,1.3c0,1-.4,1.7-1.1,2.3l-1.2.6h0Z"/>
    <path class="cls-1" d="M447.3,304.7v38.9"/>
    <path d="M415.5,188.2c0,3.9-3.1,7-7,7s-7-3.1-7-7,3.1-7,7-7,7,3.1,7,7Z"/>
    <path class="cls-2" d="M493.2,188.2c0,3.9-3.1,7-7,7s-7-3.1-7-7,3.1-7,7-7,7,3.1,7,7ZM415.5,110.6c0,3.9-3.1,7-7,7s-7-3.1-7-7,3.1-7,7-7,7,3.1,7,7ZM337.8,188.2c0,3.9-3.1,7-7,7s-7-3.1-7-7,3.1-7,7-7,7,3.1,7,7ZM415.5,265.9c0,3.9-3.1,7-7,7s-7-3.1-7-7,3.1-7,7-7,7,3.1,7,7ZM376.6,71.7c0,3.9-3.1,7-7,7s-7-3.1-7-7,3.1-7,7-7,7,3.1,7,7ZM454.3,71.7c0,3.9-3.1,7-7,7s-7-3.1-7-7,3.1-7,7-7,7,3.1,7,7Z"/>
    <path class="cls-3" d="M376.6,32.9c0,3.9-3.1,7-7,7s-7-3.1-7-7,3.1-7,7-7,7,3.1,7,7ZM454.3,32.9c0,3.9-3.1,7-7,7s-7-3.1-7-7,3.1-7,7-7,7,3.1,7,7Z"/>
    <path class="cls-2" d="M532,149.4c0,3.9-3.1,7-7,7s-7-3.1-7-7,3.1-7,7-7,7,3.1,7,7ZM532,227c0,3.9-3.1,7-7,7s-7-3.1-7-7,3.1-7,7-7,7,3.1,7,7Z"/>
    <path class="cls-3" d="M532,91.1c0,3.9-3.1,7-7,7s-7-3.1-7-7,3.1-7,7-7,7,3.1,7,7h0ZM590.2,149.4c0,3.9-3.1,7-7,7s-7-3.1-7-7,3.1-7,7-7,7,3.1,7,7ZM590.2,227c0,3.9-3.1,7-7,7s-7-3.1-7-7,3.1-7,7-7,7,3.1,7,7ZM532,285.3c0,3.9-3.1,7-7,7s-7-3.1-7-7,3.1-7,7-7,7,3.1,7,7Z"/>
    <path class="cls-2" d="M260.2,188.2c0,3.9-3.1,7-7,7s-7-3.1-7-7,3.1-7,7-7,7,3.1,7,7Z"/>
    <path class="cls-3" d="M221.3,149.4c0,3.9-3.1,7-7,7s-7-3.1-7-7,3.1-7,7-7,7,3.1,7,7ZM221.3,227c0,3.9-3.1,7-7,7s-7-3.1-7-7,3.1-7,7-7,7,3.1,7,7Z"/>
    <path class="cls-2" d="M376.6,304.7c0,3.9-3.1,7-7,7s-7-3.1-7-7,3.1-7,7-7,7,3.1,7,7ZM454.3,304.7c0,3.9-3.1,7-7,7s-7-3.1-7-7,3.1-7,7-7,7,3.1,7,7Z"/>
    <path class="cls-3" d="M376.6,343.6c0,3.9-3.1,7-7,7s-7-3.1-7-7,3.1-7,7-7,7,3.1,7,7ZM454.3,343.6c0,3.9-3.1,7-7,7s-7-3.1-7-7,3.1-7,7-7,7,3.1,7,7Z"/>
    <path class="cls-2" d="M291,197.2c0,.6-.3,1-.8,1.2-.2,0-.3.1-.5,0-.4,0-.7-.2-.8-.6v-.2c0-.5.2-.8.6-1l.6-.3c.5,0,.7.3.8.7v.2M289.3,205.9l-1,2.4-.6,2.3c0,.5.2.8.6.8,1,0,1.7-.9,2.2-2.6v-.3c.1-.2.3-.3.3-.3h.2c.1,0,.2,0,.2.2s-.1.7-.5,1.4c-.6,1.4-1.5,2.1-2.5,2.1s-1.4-.3-1.7-1l-.2-.9.6-1.8c.6-1.8,1.2-3.7,1.8-5.5,0-.5-.2-.7-.6-.7-.8,0-1.5.7-2,2l-.3.8-.4.4c-.1,0-.2,0-.2-.2,0-.3.1-.8.5-1.4.6-1.4,1.5-2.1,2.5-2.1s1.4.3,1.7,1l.2.8-.3,1.3-.5,1.3h0ZM297,209.4c1,.2,1.9.8,2.3,1.6.3.4.4.9.4,1.4,0,.9-.4,1.6-1.1,2.3-1.5,1.1-3.5,1.1-4.9-.2-.5-.5-.7-1-.7-1.6s.2-.8.7-.9h.2c.4,0,.7.2.9.5v.4c0,.4-.2.7-.6.8-.1,0-.3,0-.4,0,.4.8,1,1.1,2,1.3h.4c.7,0,1.2-.3,1.5-1,.2-.4.3-1,.3-1.6,0-1.5-.4-2.3-1.2-2.6-.2,0-.5-.1-.7,0h-.7c-.2,0-.3,0-.4-.2,0,0,.1-.2.3-.2h.6c.6,0,1-.3,1.3-.7v-.2c.4-.5.6-1.1.6-1.8,0-1-.4-1.6-1.2-1.8h-.4c-.7,0-1.3.2-1.8.6l-.3.4c.7,0,1,.2,1,.8s-.2.6-.5.7c0,0-.2,0-.3,0-.4,0-.7,0-.8-.5v-.2c0-.8.3-1.3,1-1.8.5-.3,1.1-.4,1.8-.4,1,0,1.8.2,2.4.8.4.5.6.9.6,1.4,0,.9-.4,1.6-1.2,2.2-.3.3-.7.5-1,.6h0Z"/>
  </g>
</svg>
